<?xml version="1.0" encoding="UTF-8"?>
<!DOCTYPE svg PUBLIC "-//W3C//DTD SVG 1.1//EN" "http://www.w3.org/Graphics/SVG/1.1/DTD/svg11.dtd">
<svg xmlns="http://www.w3.org/2000/svg" version="1.1" width="512px" height="512px" style="shape-rendering:geometricPrecision; text-rendering:geometricPrecision; image-rendering:optimizeQuality; fill-rule:evenodd; clip-rule:evenodd" xmlns:xlink="http://www.w3.org/1999/xlink">
<g><path style="opacity:0.989" fill="#e99a00" d="M 170.5,69.5 C 135.294,87.2018 106.794,112.535 85,145.5C 76.223,160.047 69.3897,175.38 64.5,191.5C 54.1286,169.026 47.6286,145.36 45,120.5C 43.35,103.533 42.1833,86.5332 41.5,69.5C 41.262,56.7956 46.9287,47.9622 58.5,43C 98.1625,42.0826 135.496,50.9159 170.5,69.5 Z"/></g>
<g><path style="opacity:0.988" fill="#e99a00" d="M 446.5,192.5 C 434.578,153.096 412.578,120.596 380.5,95C 368.279,86.0613 355.612,77.8947 342.5,70.5C 363.356,57.7111 386.023,49.5445 410.5,46C 424.069,43.4761 437.735,42.4761 451.5,43C 465.532,48.2082 471.532,58.3749 469.5,73.5C 469.885,111.312 463.718,147.978 451,183.5C 449.576,186.648 448.076,189.648 446.5,192.5 Z"/></g>
<g><path style="opacity:0.998" fill="#feb932" d="M 342.5,70.5 C 355.612,77.8947 368.279,86.0613 380.5,95C 412.578,120.596 434.578,153.096 446.5,192.5C 450.445,206.175 452.445,220.175 452.5,234.5C 437.488,238.925 422.988,244.592 409,251.5C 405.884,258.941 408.217,263.274 416,264.5C 427.797,260.735 439.63,257.068 451.5,253.5C 449.483,271.902 444.817,289.569 437.5,306.5C 426.072,301.955 414.739,297.121 403.5,292C 394.996,291.78 391.83,295.947 394,304.5C 395.167,305.667 396.333,306.833 397.5,308C 408.196,312.351 418.529,317.185 428.5,322.5C 421.39,334.367 413.057,345.367 403.5,355.5C 395.756,349.261 388.422,342.428 381.5,335C 371.412,331.427 366.912,334.927 368,345.5C 375.428,352.422 382.261,359.756 388.5,367.5C 387.833,367.833 387.167,368.167 386.5,368.5C 356.664,390.006 323.33,402.673 286.5,406.5C 271.295,391.148 253.962,388.315 234.5,398C 231,400.669 227.667,403.502 224.5,406.5C 187.702,402.683 154.369,390.016 124.5,368.5C 123.833,368.167 123.167,367.833 122.5,367.5C 129.131,360.368 135.964,353.368 143,346.5C 145.587,341.587 144.753,337.42 140.5,334C 137.036,333.183 133.702,333.517 130.5,335C 123.578,342.428 116.244,349.261 108.5,355.5C 98.1484,345.78 89.4818,334.78 82.5,322.5C 93.4092,317.382 104.409,312.215 115.5,307C 120.237,300.819 119.237,295.819 112.5,292C 110.833,291.333 109.167,291.333 107.5,292C 96.3352,297.329 85.0019,302.163 73.5,306.5C 66.0245,289.266 61.3578,271.266 59.5,252.5C 71.2869,257.096 83.2869,261.096 95.5,264.5C 101.244,264.59 104.244,261.756 104.5,256C 103.811,252.952 102.145,250.618 99.5,249C 85.9074,243.859 72.2407,239.025 58.5,234.5C 58.6361,219.882 60.6361,205.548 64.5,191.5C 69.3897,175.38 76.223,160.047 85,145.5C 106.794,112.535 135.294,87.2018 170.5,69.5C 227.987,43.8771 285.321,44.2105 342.5,70.5 Z"/></g>
<g><path style="opacity:1" fill="#030200" d="M 168.5,178.5 C 190.539,178.036 200.706,188.703 199,210.5C 193.737,225.406 183.237,231.572 167.5,229C 153.855,223.879 147.688,214.046 149,199.5C 151.923,189.08 158.423,182.08 168.5,178.5 Z"/></g>
<g><path style="opacity:1" fill="#030200" d="M 331.5,178.5 C 354.096,178.922 363.929,190.255 361,212.5C 353.17,228.112 341.004,232.945 324.5,227C 311.129,217.545 307.962,205.378 315,190.5C 319.256,184.737 324.756,180.737 331.5,178.5 Z"/></g>
<g><path style="opacity:1" fill="#cc3e3a" d="M 264.5,262.5 C 263.512,257.36 263.179,252.026 263.5,246.5C 258.167,246.5 252.833,246.5 247.5,246.5C 247.821,252.026 247.488,257.36 246.5,262.5C 246.5,257.167 246.5,251.833 246.5,246.5C 240.151,246.665 235.318,243.998 232,238.5C 227.272,226.123 231.106,217.623 243.5,213C 251.167,212.333 258.833,212.333 266.5,213C 279.616,217.065 283.782,225.565 279,238.5C 275.532,243.65 270.699,246.317 264.5,246.5C 264.5,251.833 264.5,257.167 264.5,262.5 Z"/></g>
<g><path style="opacity:0.981" fill="#040200" d="M 58.5,234.5 C 72.2407,239.025 85.9074,243.859 99.5,249C 102.145,250.618 103.811,252.952 104.5,256C 104.244,261.756 101.244,264.59 95.5,264.5C 83.2869,261.096 71.2869,257.096 59.5,252.5C 51.643,250.786 49.143,246.119 52,238.5C 53.6379,236.266 55.8045,234.933 58.5,234.5 Z"/></g>
<g><path style="opacity:0.981" fill="#040200" d="M 452.5,234.5 C 457.964,234.966 460.631,237.966 460.5,243.5C 460.327,249.341 457.327,252.674 451.5,253.5C 439.63,257.068 427.797,260.735 416,264.5C 408.217,263.274 405.884,258.941 409,251.5C 422.988,244.592 437.488,238.925 452.5,234.5 Z"/></g>
<g><path style="opacity:1" fill="#050301" d="M 264.5,262.5 C 268.37,273.943 276.37,278.443 288.5,276C 298.288,273.209 303.122,266.709 303,256.5C 305.541,251.931 309.375,250.431 314.5,252C 316.552,252.93 318.052,254.43 319,256.5C 319.658,272.848 312.492,284.348 297.5,291C 281.736,296.561 267.736,293.727 255.5,282.5C 239.342,295.768 222.342,296.935 204.5,286C 195.273,278.322 191.107,268.488 192,256.5C 195.366,251.391 199.866,250.224 205.5,253C 206.701,253.903 207.535,255.069 208,256.5C 209.827,272.343 218.661,278.843 234.5,276C 241.185,273.818 245.185,269.318 246.5,262.5C 247.488,257.36 247.821,252.026 247.5,246.5C 252.833,246.5 258.167,246.5 263.5,246.5C 263.179,252.026 263.512,257.36 264.5,262.5 Z"/></g>
<g><path style="opacity:0.98" fill="#040200" d="M 82.5,322.5 C 71.1718,327.263 66.0052,323.597 67,311.5C 68.7581,309.235 70.9248,307.568 73.5,306.5C 85.0019,302.163 96.3352,297.329 107.5,292C 109.167,291.333 110.833,291.333 112.5,292C 119.237,295.819 120.237,300.819 115.5,307C 104.409,312.215 93.4092,317.382 82.5,322.5 Z"/></g>
<g><path style="opacity:0.975" fill="#040200" d="M 437.5,306.5 C 445.109,309.057 447.275,314.057 444,321.5C 439.115,325.17 433.948,325.503 428.5,322.5C 418.529,317.185 408.196,312.351 397.5,308C 396.333,306.833 395.167,305.667 394,304.5C 391.83,295.947 394.996,291.78 403.5,292C 414.739,297.121 426.072,301.955 437.5,306.5 Z"/></g>
<g><path style="opacity:0.968" fill="#020100" d="M 122.5,367.5 C 119.667,371.165 116.334,374.332 112.5,377C 102.833,378.331 99.0001,374.164 101,364.5C 103.335,361.335 105.835,358.335 108.5,355.5C 116.244,349.261 123.578,342.428 130.5,335C 133.702,333.517 137.036,333.183 140.5,334C 144.753,337.42 145.587,341.587 143,346.5C 135.964,353.368 129.131,360.368 122.5,367.5 Z"/></g>
<g><path style="opacity:0.966" fill="#040200" d="M 403.5,355.5 C 406.165,358.335 408.665,361.335 411,364.5C 413,374.164 409.167,378.331 399.5,377C 395.666,373.998 392,370.831 388.5,367.5C 382.261,359.756 375.428,352.422 368,345.5C 366.912,334.927 371.412,331.427 381.5,335C 388.422,342.428 395.756,349.261 403.5,355.5 Z"/></g>
<g><path style="opacity:0.991" fill="#ce3b3a" d="M 124.5,368.5 C 154.369,390.016 187.702,402.683 224.5,406.5C 213.752,425.405 215.419,443.071 229.5,459.5C 197.531,457.016 168.864,446.183 143.5,427C 126.422,410.932 120.088,391.432 124.5,368.5 Z"/></g>
<g><path style="opacity:0.991" fill="#ce3b3a" d="M 386.5,368.5 C 390.912,391.432 384.578,410.932 367.5,427C 342.136,446.183 313.469,457.016 281.5,459.5C 295.581,443.084 297.248,425.418 286.5,406.5C 323.33,402.673 356.664,390.006 386.5,368.5 Z"/></g>
<g><path style="opacity:0.995" fill="#fe7900" d="M 286.5,406.5 C 297.248,425.418 295.581,443.084 281.5,459.5C 264.167,472.833 246.833,472.833 229.5,459.5C 215.419,443.071 213.752,425.405 224.5,406.5C 227.667,403.502 231,400.669 234.5,398C 253.962,388.315 271.295,391.148 286.5,406.5 Z"/></g>
</svg>
